<svg width="200" height="200" viewBox="0 0 200 200" xmlns="http://www.w3.org/2000/svg">
  <defs>
    <linearGradient id="missionGrad" x1="0%" y1="0%" x2="100%" y2="100%">
      <stop offset="0%" style="stop-color:#4f46e5;stop-opacity:1" />
      <stop offset="100%" style="stop-color:#7c3aed;stop-opacity:1" />
    </linearGradient>
    <filter id="glow3">
      <feGaussianBlur stdDeviation="2" result="coloredBlur"/>
      <feMerge> 
        <feMergeNode in="coloredBlur"/>
        <feMergeNode in="SourceGraphic"/>
      </feMerge>
    </filter>
  </defs>
  
  <!-- Background circle -->
  <circle cx="100" cy="100" r="90" fill="url(#missionGrad)" opacity="0.9"/>
  
  <!-- Rocket body -->
  <ellipse cx="100" cy="120" rx="12" ry="35" fill="#ffffff" filter="url(#glow3)"/>
  
  <!-- Rocket nose -->
  <polygon points="100,85 88,95 112,95" fill="#ffffff" filter="url(#glow3)"/>
  
  <!-- Rocket fins -->
  <polygon points="85,140 88,155 100,150" fill="#ffffff" opacity="0.8"/>
  <polygon points="115,140 112,155 100,150" fill="#ffffff" opacity="0.8"/>
  
  <!-- Flame -->
  <ellipse cx="100" cy="165" rx="8" ry="12" fill="#f59e0b" opacity="0.8"/>
  <ellipse cx="100" cy="170" rx="5" ry="8" fill="#ef4444" opacity="0.8"/>
  
  <!-- Stars -->
  <polygon points="60,60 62,65 67,65 63,69 65,74 60,71 55,74 57,69 53,65 58,65" fill="#ffffff" opacity="0.6"/>
  <polygon points="140,70 142,75 147,75 143,79 145,84 140,81 135,84 137,79 133,75 138,75" fill="#ffffff" opacity="0.6"/>
  <polygon points="70,140 72,145 77,145 73,149 75,154 70,151 65,154 67,149 63,145 68,145" fill="#ffffff" opacity="0.6"/>
  
  <!-- Orbit rings -->
  <circle cx="100" cy="100" r="70" fill="none" stroke="#ffffff" stroke-width="1" opacity="0.3"/>
  <circle cx="100" cy="100" r="50" fill="none" stroke="#ffffff" stroke-width="1" opacity="0.2"/>
</svg>