<svg width="200" height="200" viewBox="0 0 200 200" xmlns="http://www.w3.org/2000/svg">
  <defs>
    <linearGradient id="valuesGrad" x1="0%" y1="0%" x2="100%" y2="100%">
      <stop offset="0%" style="stop-color:#f59e0b;stop-opacity:1" />
      <stop offset="100%" style="stop-color:#d97706;stop-opacity:1" />
    </linearGradient>
    <filter id="glow5">
      <feGaussianBlur stdDeviation="2" result="coloredBlur"/>
      <feMerge> 
        <feMergeNode in="coloredBlur"/>
        <feMergeNode in="SourceGraphic"/>
      </feMerge>
    </filter>
  </defs>
  
  <!-- Background circle -->
  <circle cx="100" cy="100" r="90" fill="url(#valuesGrad)" opacity="0.9"/>
  
  <!-- Light bulb outline -->
  <ellipse cx="100" cy="110" rx="25" ry="35" fill="#ffffff" filter="url(#glow5)"/>
  
  <!-- Light bulb base -->
  <rect x="88" y="135" width="24" height="12" fill="#ffffff" rx="2" filter="url(#glow5)"/>
  <rect x="91" y="147" width="18" height="6" fill="#ffffff" rx="3" filter="url(#glow5)"/>
  
  <!-- Filament inside bulb -->
  <path d="M85 100 Q100 90 115 100 Q100 110 85 100" fill="none" stroke="#f59e0b" stroke-width="2" opacity="0.7"/>
  <path d="M85 115 Q100 105 115 115" fill="none" stroke="#f59e0b" stroke-width="2" opacity="0.7"/>
  
  <!-- Radiating light rays -->
  <g opacity="0.6" stroke="#ffffff" stroke-width="3" stroke-linecap="round">
    <line x1="100" y1="65" x2="100" y2="45"/>
    <line x1="125" y1="75" x2="140" y2="60"/>
    <line x1="135" y1="100" x2="155" y2="100"/>
    <line x1="125" y1="125" x2="140" y2="140"/>
    <line x1="75" y1="125" x2="60" y2="140"/>
    <line x1="65" y1="100" x2="45" y2="100"/>
    <line x1="75" y1="75" x2="60" y2="60"/>
  </g>
  
  <!-- Smaller light rays -->
  <g opacity="0.4" stroke="#ffffff" stroke-width="2" stroke-linecap="round">
    <line x1="112" y1="70" x2="118" y2="58"/>
    <line x1="88" y1="70" x2="82" y2="58"/>
    <line x1="118" y1="85" x2="130" y2="79"/>
    <line x1="82" y1="85" x2="70" y2="79"/>
    <line x1="118" y1="115" x2="130" y2="121"/>
    <line x1="82" y1="115" x2="70" y2="121"/>
  </g>
  
  <!-- Center glow -->
  <circle cx="100" cy="100" r="35" fill="none" stroke="#ffffff" stroke-width="1" opacity="0.3"/>
  <circle cx="100" cy="100" r="45" fill="none" stroke="#ffffff" stroke-width="1" opacity="0.2"/>
</svg>