<svg width="300" height="200" viewBox="0 0 300 200" xmlns="http://www.w3.org/2000/svg">
  <defs>
    <linearGradient id="aiGrad" x1="0%" y1="0%" x2="100%" y2="100%">
      <stop offset="0%" style="stop-color:#7c3aed;stop-opacity:1" />
      <stop offset="100%" style="stop-color:#a855f7;stop-opacity:1" />
    </linearGradient>
  </defs>
  
  <!-- Background -->
  <rect width="300" height="200" fill="url(#aiGrad)" rx="12"/>
  
  <!-- Neural network nodes -->
  <g fill="#ffffff" opacity="0.9">
    <!-- Input layer -->
    <circle cx="60" cy="60" r="8"/>
    <circle cx="60" cy="100" r="8"/>
    <circle cx="60" cy="140" r="8"/>
    
    <!-- Hidden layer 1 -->
    <circle cx="120" cy="40" r="8"/>
    <circle cx="120" cy="80" r="8"/>
    <circle cx="120" cy="120" r="8"/>
    <circle cx="120" cy="160" r="8"/>
    
    <!-- Hidden layer 2 -->
    <circle cx="180" cy="60" r="8"/>
    <circle cx="180" cy="100" r="8"/>
    <circle cx="180" cy="140" r="8"/>
    
    <!-- Output layer -->
    <circle cx="240" cy="80" r="8"/>
    <circle cx="240" cy="120" r="8"/>
  </g>
  
  <!-- Neural connections -->
  <g opacity="0.4" stroke="#ffffff" stroke-width="1.5">
    <!-- Input to hidden layer 1 -->
    <line x1="68" y1="60" x2="112" y2="40"/>
    <line x1="68" y1="60" x2="112" y2="80"/>
    <line x1="68" y1="100" x2="112" y2="80"/>
    <line x1="68" y1="100" x2="112" y2="120"/>
    <line x1="68" y1="140" x2="112" y2="120"/>
    <line x1="68" y1="140" x2="112" y2="160"/>
    
    <!-- Hidden layer 1 to hidden layer 2 -->
    <line x1="128" y1="40" x2="172" y2="60"/>
    <line x1="128" y1="80" x2="172" y2="60"/>
    <line x1="128" y1="80" x2="172" y2="100"/>
    <line x1="128" y1="120" x2="172" y2="100"/>
    <line x1="128" y1="120" x2="172" y2="140"/>
    <line x1="128" y1="160" x2="172" y2="140"/>
    
    <!-- Hidden layer 2 to output -->
    <line x1="188" y1="60" x2="232" y2="80"/>
    <line x1="188" y1="100" x2="232" y2="80"/>
    <line x1="188" y1="100" x2="232" y2="120"/>
    <line x1="188" y1="140" x2="232" y2="120"/>
  </g>
  
  <!-- Data flow particles -->
  <g opacity="0.6">
    <circle cx="90" cy="70" r="2" fill="#fbbf24"/>
    <circle cx="150" cy="90" r="2" fill="#34d399"/>
    <circle cx="210" cy="110" r="2" fill="#60a5fa"/>
    <circle cx="135" cy="130" r="2" fill="#f87171"/>
  </g>
  
  <!-- Brain/AI symbol -->
  <g opacity="0.3" fill="#ffffff">
    <path d="M270 40 Q280 30 290 40 Q285 50 275 45 Q270 50 270 40 Z"/>
    <path d="M265 50 Q275 45 285 55 Q280 60 270 55 Q265 60 265 50 Z"/>
    <circle cx="275" cy="35" r="2"/>
    <circle cx="280" cy="52" r="2"/>
  </g>
</svg>