<svg width="300" height="200" viewBox="0 0 300 200" xmlns="http://www.w3.org/2000/svg">
  <defs>
    <linearGradient id="cloudGrad" x1="0%" y1="0%" x2="100%" y2="100%">
      <stop offset="0%" style="stop-color:#0ea5e9;stop-opacity:1" />
      <stop offset="100%" style="stop-color:#0284c7;stop-opacity:1" />
    </linearGradient>
  </defs>
  
  <!-- Background -->
  <rect width="300" height="200" fill="url(#cloudGrad)" rx="12"/>
  
  <!-- Cloud shape -->
  <path d="M80 100 Q70 80 90 80 Q100 70 120 80 Q140 70 160 80 Q180 80 170 100 Q180 120 160 120 L90 120 Q70 120 80 100 Z" fill="#ffffff" opacity="0.9"/>
  
  <!-- Server racks inside cloud -->
  <g opacity="0.8">
    <rect x="100" y="95" width="12" height="20" fill="#0ea5e9" rx="2"/>
    <rect x="115" y="95" width="12" height="20" fill="#0ea5e9" rx="2"/>
    <rect x="130" y="95" width="12" height="20" fill="#0ea5e9" rx="2"/>
    <rect x="145" y="95" width="12" height="20" fill="#0ea5e9" rx="2"/>
    
    <!-- Server indicators -->
    <circle cx="106" cy="100" r="1.5" fill="#10b981"/>
    <circle cx="121" cy="100" r="1.5" fill="#10b981"/>
    <circle cx="136" cy="100" r="1.5" fill="#f59e0b"/>
    <circle cx="151" cy="100" r="1.5" fill="#10b981"/>
  </g>
  
  <!-- Connecting devices -->
  <rect x="50" y="140" width="30" height="20" fill="#ffffff" opacity="0.9" rx="4"/>
  <rect x="220" y="140" width="30" height="20" fill="#ffffff" opacity="0.9" rx="4"/>
  <rect x="50" y="40" width="30" height="20" fill="#ffffff" opacity="0.9" rx="4"/>
  <rect x="220" y="40" width="30" height="20" fill="#ffffff" opacity="0.9" rx="4"/>
  
  <!-- Connection lines -->
  <g opacity="0.6" stroke="#ffffff" stroke-width="2" stroke-dasharray="3,3">
    <line x1="80" y1="150" x2="100" y2="120"/>
    <line x1="220" y1="150" x2="160" y2="120"/>
    <line x1="80" y1="50" x2="100" y2="80"/>
    <line x1="220" y1="50" x2="160" y2="80"/>
  </g>
  
  <!-- Floating tech elements -->
  <g opacity="0.3">
    <rect x="20" y="80" width="15" height="15" fill="#ffffff" rx="3"/>
    <circle cx="270" cy="70" r="8" fill="#ffffff"/>
    <polygon points="260,130 270,120 280,130 270,140" fill="#ffffff"/>
    <rect x="25" y="170" width="12" height="12" fill="#ffffff" rx="2"/>
  </g>
</svg>