<svg width="300" height="200" viewBox="0 0 300 200" xmlns="http://www.w3.org/2000/svg">
  <defs>
    <linearGradient id="softwareGrad" x1="0%" y1="0%" x2="100%" y2="100%">
      <stop offset="0%" style="stop-color:#3b82f6;stop-opacity:1" />
      <stop offset="100%" style="stop-color:#1d4ed8;stop-opacity:1" />
    </linearGradient>
  </defs>
  
  <!-- Background -->
  <rect width="300" height="200" fill="url(#softwareGrad)" rx="12"/>
  
  <!-- Code editor window -->
  <rect x="30" y="40" width="240" height="120" fill="#ffffff" opacity="0.95" rx="8"/>
  
  <!-- Title bar -->
  <rect x="30" y="40" width="240" height="25" fill="#1e293b" rx="8"/>
  <circle cx="45" cy="52" r="4" fill="#ef4444"/>
  <circle cx="58" cy="52" r="4" fill="#f59e0b"/>
  <circle cx="71" cy="52" r="4" fill="#10b981"/>
  
  <!-- Code lines -->
  <rect x="40" y="80" width="80" height="3" fill="#3b82f6" rx="1"/>
  <rect x="40" y="90" width="120" height="3" fill="#64748b" rx="1"/>
  <rect x="50" y="100" width="90" height="3" fill="#8b5cf6" rx="1"/>
  <rect x="50" y="110" width="110" height="3" fill="#64748b" rx="1"/>
  <rect x="40" y="120" width="70" height="3" fill="#10b981" rx="1"/>
  <rect x="50" y="130" width="95" height="3" fill="#64748b" rx="1"/>
  <rect x="40" y="140" width="85" height="3" fill="#f59e0b" rx="1"/>
  
  <!-- Floating elements -->
  <circle cx="220" cy="90" r="15" fill="#ffffff" opacity="0.3"/>
  <rect x="210" y="110" width="20" height="20" fill="#ffffff" opacity="0.3" rx="3"/>
  <polygon points="200,140 215,130 215,150" fill="#ffffff" opacity="0.3"/>
</svg>